<mxfile host="65bd71144e">
    <diagram id="oQGmxIACicsIkvx8hSu-" name="Message Styles">
        <mxGraphModel dx="1027" dy="472" grid="1" gridSize="10" guides="1" tooltips="1" connect="1" arrows="1" fold="1" page="1" pageScale="1" pageWidth="850" pageHeight="1100" math="0" shadow="0">
            <root>
                <mxCell id="0"/>
                <mxCell id="1" parent="0"/>
                <mxCell id="9" style="edgeStyle=none;html=1;entryX=-0.048;entryY=0.407;entryDx=0;entryDy=0;entryPerimeter=0;" parent="1" source="2" target="8" edge="1">
                    <mxGeometry relative="1" as="geometry"/>
                </mxCell>
                <mxCell id="16" value="" style="edgeStyle=none;html=1;" parent="1" source="2" target="15" edge="1">
                    <mxGeometry relative="1" as="geometry">
                        <Array as="points">
                            <mxPoint x="210" y="360"/>
                        </Array>
                    </mxGeometry>
                </mxCell>
                <mxCell id="2" value="Service A&lt;br&gt;" style="ellipse;whiteSpace=wrap;html=1;" parent="1" vertex="1">
                    <mxGeometry x="80" y="180" width="190" height="120" as="geometry"/>
                </mxCell>
                <mxCell id="13" style="edgeStyle=none;html=1;entryX=-0.048;entryY=0.581;entryDx=0;entryDy=0;entryPerimeter=0;" parent="1" source="4" target="8" edge="1">
                    <mxGeometry relative="1" as="geometry">
                        <Array as="points">
                            <mxPoint x="560" y="170"/>
                        </Array>
                    </mxGeometry>
                </mxCell>
                <mxCell id="4" value="Service B" style="ellipse;whiteSpace=wrap;html=1;" parent="1" vertex="1">
                    <mxGeometry x="620" y="180" width="170" height="120" as="geometry"/>
                </mxCell>
                <mxCell id="6" value="Request -&amp;gt; Reply" style="text;html=1;align=center;verticalAlign=middle;resizable=0;points=[];autosize=1;strokeColor=none;fillColor=none;" parent="1" vertex="1">
                    <mxGeometry x="370" y="430" width="110" height="20" as="geometry"/>
                </mxCell>
                <mxCell id="10" style="edgeStyle=none;html=1;" parent="1" source="8" target="4" edge="1">
                    <mxGeometry relative="1" as="geometry"/>
                </mxCell>
                <mxCell id="14" style="edgeStyle=none;html=1;" parent="1" source="8" target="11" edge="1">
                    <mxGeometry relative="1" as="geometry"/>
                </mxCell>
                <mxCell id="8" value="Message Bus" style="shape=cylinder3;whiteSpace=wrap;html=1;boundedLbl=1;backgroundOutline=1;size=15;rotation=-90;" parent="1" vertex="1">
                    <mxGeometry x="395" y="-80" width="60" height="280" as="geometry"/>
                </mxCell>
                <mxCell id="11" value="Notification Service" style="ellipse;whiteSpace=wrap;html=1;" parent="1" vertex="1">
                    <mxGeometry x="410" y="350" width="225" height="110" as="geometry"/>
                </mxCell>
                <mxCell id="17" value="" style="edgeStyle=none;html=1;" parent="1" source="15" target="2" edge="1">
                    <mxGeometry relative="1" as="geometry">
                        <Array as="points">
                            <mxPoint x="140" y="360"/>
                        </Array>
                    </mxGeometry>
                </mxCell>
                <mxCell id="15" value="Service C" style="ellipse;whiteSpace=wrap;html=1;" parent="1" vertex="1">
                    <mxGeometry x="80" y="410" width="190" height="120" as="geometry"/>
                </mxCell>
            </root>
        </mxGraphModel>
    </diagram>
    <diagram id="4715jszVnEOgIYrp6hxG" name="Page-2">
        <mxGraphModel dx="1223" dy="472" grid="1" gridSize="10" guides="1" tooltips="1" connect="1" arrows="1" fold="1" page="1" pageScale="1" pageWidth="850" pageHeight="1100" math="0" shadow="0">
            <root>
                <mxCell id="zf1mJ2Ks1gVrtGOe9tdK-0"/>
                <mxCell id="zf1mJ2Ks1gVrtGOe9tdK-1" parent="zf1mJ2Ks1gVrtGOe9tdK-0"/>
                <mxCell id="D_04XxpTFQ1pf00YKzVa-0" style="edgeStyle=none;html=1;entryX=-0.048;entryY=0.407;entryDx=0;entryDy=0;entryPerimeter=0;exitX=0.993;exitY=0.605;exitDx=0;exitDy=0;exitPerimeter=0;" parent="zf1mJ2Ks1gVrtGOe9tdK-1" source="fZOcJtcuAYmtVRUyS6_C-0" target="D_04XxpTFQ1pf00YKzVa-7" edge="1">
                    <mxGeometry relative="1" as="geometry">
                        <mxPoint x="240.7230075576574" y="196.6758649732035" as="sourcePoint"/>
                    </mxGeometry>
                </mxCell>
                <mxCell id="D_04XxpTFQ1pf00YKzVa-1" value="" style="edgeStyle=none;html=1;" parent="zf1mJ2Ks1gVrtGOe9tdK-1" source="fZOcJtcuAYmtVRUyS6_C-0" target="D_04XxpTFQ1pf00YKzVa-10" edge="1">
                    <mxGeometry relative="1" as="geometry">
                        <mxPoint x="192.2104308003095" y="299.007191315347" as="sourcePoint"/>
                        <Array as="points">
                            <mxPoint x="390" y="350"/>
                        </Array>
                    </mxGeometry>
                </mxCell>
                <mxCell id="D_04XxpTFQ1pf00YKzVa-2" style="edgeStyle=none;html=1;entryX=-0.048;entryY=0.581;entryDx=0;entryDy=0;entryPerimeter=0;" parent="zf1mJ2Ks1gVrtGOe9tdK-1" source="D_04XxpTFQ1pf00YKzVa-3" target="D_04XxpTFQ1pf00YKzVa-7" edge="1">
                    <mxGeometry relative="1" as="geometry">
                        <Array as="points">
                            <mxPoint x="560" y="170"/>
                        </Array>
                    </mxGeometry>
                </mxCell>
                <mxCell id="D_04XxpTFQ1pf00YKzVa-3" value="Service B" style="ellipse;whiteSpace=wrap;html=1;" parent="zf1mJ2Ks1gVrtGOe9tdK-1" vertex="1">
                    <mxGeometry x="435" y="30" width="170" height="120" as="geometry"/>
                </mxCell>
                <mxCell id="D_04XxpTFQ1pf00YKzVa-4" value="Request -&amp;gt; Reply" style="text;html=1;align=center;verticalAlign=middle;resizable=0;points=[];autosize=1;strokeColor=none;fillColor=none;" parent="zf1mJ2Ks1gVrtGOe9tdK-1" vertex="1">
                    <mxGeometry x="340" y="530" width="110" height="20" as="geometry"/>
                </mxCell>
                <mxCell id="D_04XxpTFQ1pf00YKzVa-5" style="edgeStyle=none;html=1;" parent="zf1mJ2Ks1gVrtGOe9tdK-1" source="D_04XxpTFQ1pf00YKzVa-7" target="D_04XxpTFQ1pf00YKzVa-3" edge="1">
                    <mxGeometry relative="1" as="geometry"/>
                </mxCell>
                <mxCell id="D_04XxpTFQ1pf00YKzVa-6" style="edgeStyle=none;html=1;" parent="zf1mJ2Ks1gVrtGOe9tdK-1" source="D_04XxpTFQ1pf00YKzVa-7" target="D_04XxpTFQ1pf00YKzVa-8" edge="1">
                    <mxGeometry relative="1" as="geometry"/>
                </mxCell>
                <mxCell id="D_04XxpTFQ1pf00YKzVa-7" value="Message Bus" style="shape=cylinder3;whiteSpace=wrap;html=1;boundedLbl=1;backgroundOutline=1;size=15;rotation=0;" parent="zf1mJ2Ks1gVrtGOe9tdK-1" vertex="1">
                    <mxGeometry x="910" y="220" width="60" height="280" as="geometry"/>
                </mxCell>
                <mxCell id="D_04XxpTFQ1pf00YKzVa-8" value="Notification Service" style="ellipse;whiteSpace=wrap;html=1;" parent="zf1mJ2Ks1gVrtGOe9tdK-1" vertex="1">
                    <mxGeometry x="645" y="410" width="225" height="110" as="geometry"/>
                </mxCell>
                <mxCell id="D_04XxpTFQ1pf00YKzVa-9" value="" style="edgeStyle=none;html=1;" parent="zf1mJ2Ks1gVrtGOe9tdK-1" source="D_04XxpTFQ1pf00YKzVa-10" target="fZOcJtcuAYmtVRUyS6_C-0" edge="1">
                    <mxGeometry relative="1" as="geometry">
                        <mxPoint x="157.78956919969073" y="299.00719131534606" as="targetPoint"/>
                        <Array as="points">
                            <mxPoint x="440" y="340"/>
                        </Array>
                    </mxGeometry>
                </mxCell>
                <mxCell id="D_04XxpTFQ1pf00YKzVa-10" value="Service C" style="ellipse;whiteSpace=wrap;html=1;" parent="zf1mJ2Ks1gVrtGOe9tdK-1" vertex="1">
                    <mxGeometry x="435" y="400" width="190" height="120" as="geometry"/>
                </mxCell>
                <mxCell id="fZOcJtcuAYmtVRUyS6_C-0" value="Service A&lt;br&gt;" style="ellipse;whiteSpace=wrap;html=1;" parent="zf1mJ2Ks1gVrtGOe9tdK-1" vertex="1">
                    <mxGeometry x="435" y="210" width="190" height="120" as="geometry"/>
                </mxCell>
                <mxCell id="fZOcJtcuAYmtVRUyS6_C-10" style="edgeStyle=none;html=1;entryX=0;entryY=0.5;entryDx=0;entryDy=0;" parent="zf1mJ2Ks1gVrtGOe9tdK-1" source="fZOcJtcuAYmtVRUyS6_C-2" target="fZOcJtcuAYmtVRUyS6_C-9" edge="1">
                    <mxGeometry relative="1" as="geometry"/>
                </mxCell>
                <mxCell id="fZOcJtcuAYmtVRUyS6_C-2" value="" style="aspect=fixed;perimeter=ellipsePerimeter;html=1;align=center;shadow=0;dashed=0;spacingTop=3;image;image=img/lib/active_directory/laptop_client.svg;" parent="zf1mJ2Ks1gVrtGOe9tdK-1" vertex="1">
                    <mxGeometry x="60" y="130" width="60" height="66.67" as="geometry"/>
                </mxCell>
                <mxCell id="fZOcJtcuAYmtVRUyS6_C-17" style="edgeStyle=none;html=1;" parent="zf1mJ2Ks1gVrtGOe9tdK-1" source="fZOcJtcuAYmtVRUyS6_C-3" target="fZOcJtcuAYmtVRUyS6_C-12" edge="1">
                    <mxGeometry relative="1" as="geometry"/>
                </mxCell>
                <mxCell id="fZOcJtcuAYmtVRUyS6_C-3" value="" style="verticalLabelPosition=bottom;verticalAlign=top;html=1;shadow=0;dashed=0;strokeWidth=1;shape=mxgraph.android.phone2;strokeColor=#c0c0c0;" parent="zf1mJ2Ks1gVrtGOe9tdK-1" vertex="1">
                    <mxGeometry x="47.5" y="230" width="70" height="110" as="geometry"/>
                </mxCell>
                <mxCell id="fZOcJtcuAYmtVRUyS6_C-18" style="edgeStyle=none;html=1;" parent="zf1mJ2Ks1gVrtGOe9tdK-1" source="fZOcJtcuAYmtVRUyS6_C-4" target="fZOcJtcuAYmtVRUyS6_C-13" edge="1">
                    <mxGeometry relative="1" as="geometry"/>
                </mxCell>
                <mxCell id="fZOcJtcuAYmtVRUyS6_C-4" value="" style="outlineConnect=0;dashed=0;verticalLabelPosition=bottom;verticalAlign=top;align=center;html=1;shape=mxgraph.aws3.fire_tv;fillColor=#5294CF;gradientColor=none;" parent="zf1mJ2Ks1gVrtGOe9tdK-1" vertex="1">
                    <mxGeometry x="45.5" y="410" width="72" height="55.5" as="geometry"/>
                </mxCell>
                <mxCell id="fZOcJtcuAYmtVRUyS6_C-5" value="10.134.22.175" style="text;html=1;align=center;verticalAlign=middle;resizable=0;points=[];autosize=1;strokeColor=none;fillColor=none;" parent="zf1mJ2Ks1gVrtGOe9tdK-1" vertex="1">
                    <mxGeometry x="485" y="470" width="90" height="20" as="geometry"/>
                </mxCell>
                <mxCell id="fZOcJtcuAYmtVRUyS6_C-6" value="10.134.22.165" style="text;html=1;align=center;verticalAlign=middle;resizable=0;points=[];autosize=1;strokeColor=none;fillColor=none;" parent="zf1mJ2Ks1gVrtGOe9tdK-1" vertex="1">
                    <mxGeometry x="485" y="280" width="90" height="20" as="geometry"/>
                </mxCell>
                <mxCell id="fZOcJtcuAYmtVRUyS6_C-7" value="10.134.22.155" style="text;html=1;align=center;verticalAlign=middle;resizable=0;points=[];autosize=1;strokeColor=none;fillColor=none;" parent="zf1mJ2Ks1gVrtGOe9tdK-1" vertex="1">
                    <mxGeometry x="712.5" y="480" width="90" height="20" as="geometry"/>
                </mxCell>
                <mxCell id="fZOcJtcuAYmtVRUyS6_C-14" style="edgeStyle=none;html=1;" parent="zf1mJ2Ks1gVrtGOe9tdK-1" source="fZOcJtcuAYmtVRUyS6_C-8" target="D_04XxpTFQ1pf00YKzVa-10" edge="1">
                    <mxGeometry relative="1" as="geometry"/>
                </mxCell>
                <mxCell id="fZOcJtcuAYmtVRUyS6_C-15" style="edgeStyle=none;html=1;entryX=0.019;entryY=0.407;entryDx=0;entryDy=0;entryPerimeter=0;" parent="zf1mJ2Ks1gVrtGOe9tdK-1" source="fZOcJtcuAYmtVRUyS6_C-8" target="fZOcJtcuAYmtVRUyS6_C-0" edge="1">
                    <mxGeometry relative="1" as="geometry"/>
                </mxCell>
                <mxCell id="fZOcJtcuAYmtVRUyS6_C-16" style="edgeStyle=none;html=1;" parent="zf1mJ2Ks1gVrtGOe9tdK-1" source="fZOcJtcuAYmtVRUyS6_C-8" target="D_04XxpTFQ1pf00YKzVa-8" edge="1">
                    <mxGeometry relative="1" as="geometry"/>
                </mxCell>
                <mxCell id="fZOcJtcuAYmtVRUyS6_C-8" value="API Gateway&lt;br&gt;" style="rounded=1;whiteSpace=wrap;html=1;" parent="zf1mJ2Ks1gVrtGOe9tdK-1" vertex="1">
                    <mxGeometry x="195" y="70" width="120" height="440" as="geometry"/>
                </mxCell>
                <mxCell id="fZOcJtcuAYmtVRUyS6_C-11" style="edgeStyle=none;html=1;entryX=0.05;entryY=0.703;entryDx=0;entryDy=0;entryPerimeter=0;" parent="zf1mJ2Ks1gVrtGOe9tdK-1" source="fZOcJtcuAYmtVRUyS6_C-9" target="D_04XxpTFQ1pf00YKzVa-3" edge="1">
                    <mxGeometry relative="1" as="geometry"/>
                </mxCell>
                <mxCell id="fZOcJtcuAYmtVRUyS6_C-19" style="edgeStyle=none;html=1;" parent="zf1mJ2Ks1gVrtGOe9tdK-1" source="fZOcJtcuAYmtVRUyS6_C-9" target="fZOcJtcuAYmtVRUyS6_C-0" edge="1">
                    <mxGeometry relative="1" as="geometry"/>
                </mxCell>
                <mxCell id="fZOcJtcuAYmtVRUyS6_C-20" style="edgeStyle=none;html=1;exitX=1;exitY=0.5;exitDx=0;exitDy=0;" parent="zf1mJ2Ks1gVrtGOe9tdK-1" source="fZOcJtcuAYmtVRUyS6_C-9" target="D_04XxpTFQ1pf00YKzVa-10" edge="1">
                    <mxGeometry relative="1" as="geometry"/>
                </mxCell>
                <mxCell id="fZOcJtcuAYmtVRUyS6_C-21" style="edgeStyle=none;html=1;" parent="zf1mJ2Ks1gVrtGOe9tdK-1" source="fZOcJtcuAYmtVRUyS6_C-9" target="D_04XxpTFQ1pf00YKzVa-8" edge="1">
                    <mxGeometry relative="1" as="geometry"/>
                </mxCell>
                <mxCell id="fZOcJtcuAYmtVRUyS6_C-9" value="Web App BFF" style="rounded=1;whiteSpace=wrap;html=1;" parent="zf1mJ2Ks1gVrtGOe9tdK-1" vertex="1">
                    <mxGeometry x="220" y="140" width="80" height="60" as="geometry"/>
                </mxCell>
                <mxCell id="fZOcJtcuAYmtVRUyS6_C-12" value="Mobile App BFF" style="rounded=1;whiteSpace=wrap;html=1;" parent="zf1mJ2Ks1gVrtGOe9tdK-1" vertex="1">
                    <mxGeometry x="220" y="300" width="70" height="60" as="geometry"/>
                </mxCell>
                <mxCell id="fZOcJtcuAYmtVRUyS6_C-13" value="TV App BFF" style="rounded=1;whiteSpace=wrap;html=1;" parent="zf1mJ2Ks1gVrtGOe9tdK-1" vertex="1">
                    <mxGeometry x="220" y="390" width="70" height="60" as="geometry"/>
                </mxCell>
                <mxCell id="VV12hFxkPRp4T2DIBTKw-0" style="edgeStyle=none;html=1;exitX=0.75;exitY=1;exitDx=0;exitDy=0;entryX=0.824;entryY=1.002;entryDx=0;entryDy=0;entryPerimeter=0;" edge="1" parent="zf1mJ2Ks1gVrtGOe9tdK-1" source="fZOcJtcuAYmtVRUyS6_C-8" target="fZOcJtcuAYmtVRUyS6_C-8">
                    <mxGeometry relative="1" as="geometry"/>
                </mxCell>
            </root>
        </mxGraphModel>
    </diagram>
</mxfile>